HIERARCHY
ROOT Hips
{
 OFFSET 0.000000 0.000000 0.000000
 CHANNELS 6 Xposition Yposition Zposition Yrotation Xrotation Zrotation
 JOINT Chest
 {
  OFFSET 0.000000 9.588913 -0.003946
  CHANNELS 3 Yrotation Xrotation Zrotation
  JOINT Chest2
  {
   OFFSET 0.000000 9.541882 0.008053
   CHANNELS 3 Yrotation Xrotation Zrotation
   JOINT Chest3
   {
    OFFSET 0.000000 9.501360 0.000000
    CHANNELS 3 Yrotation Xrotation Zrotation
    JOINT Chest4
    {
     OFFSET 0.000000 9.491660 0.000000
     CHANNELS 3 Yrotation Xrotation Zrotation
     JOINT Neck
     {
      OFFSET 0.000000 14.331917 0.000000
      CHANNELS 3 Yrotation Xrotation Zrotation
      JOINT Head
      {
       OFFSET 0.000000 8.884799 0.017034
       CHANNELS 3 Yrotation Xrotation Zrotation
       End Site
       {
        OFFSET 0.000000 16.896195 0.008993
       }
      }
     }
     JOINT RightCollar
     {
      OFFSET -2.923010 9.499495 0.000000
      CHANNELS 3 Yrotation Xrotation Zrotation
      JOINT RightShoulder
      {
       OFFSET -13.795216 0.000000 0.000000
       CHANNELS 3 Yrotation Xrotation Zrotation
       JOINT RightElbow
       {
        OFFSET -30.272209 0.000000 0.000000
        CHANNELS 3 Yrotation Xrotation Zrotation
        JOINT RightWrist
        {
         OFFSET -24.478199 0.000000 0.000000
         CHANNELS 3 Yrotation Xrotation Zrotation
         End Site
         {
          OFFSET -18.090752 0.000000 0.000000
         }
        }
       }
      }
     }
     JOINT LeftCollar
     {
      OFFSET 2.923010 9.499495 0.000000
      CHANNELS 3 Yrotation Xrotation Zrotation
      JOINT LeftShoulder
      {
       OFFSET 13.795216 0.000000 0.000000
       CHANNELS 3 Yrotation Xrotation Zrotation
       JOINT LeftElbow
       {
        OFFSET 30.272209 0.000000 0.000000
        CHANNELS 3 Yrotation Xrotation Zrotation
        JOINT LeftWrist
        {
         OFFSET 24.478199 0.000000 0.000000
         CHANNELS 3 Yrotation Xrotation Zrotation
         End Site
         {
          OFFSET 18.090752 0.000000 0.000000
         }
        }
       }
      }
     }
    }
   }
  }
 }
 JOINT RightHip
 {
  OFFSET -7.826875 0.019532 0.001973
  CHANNELS 3 Yrotation Xrotation Zrotation
  JOINT RightKnee
  {
   OFFSET 0.000000 -40.546152 -0.001885
   CHANNELS 3 Yrotation Xrotation Zrotation
   JOINT RightAnkle
   {
    OFFSET 0.000000 -39.417092 -0.003189
    CHANNELS 3 Yrotation Xrotation Zrotation
    JOINT RightToe
    {
     OFFSET 0.000000 -7.579396 17.243563
     CHANNELS 3 Yrotation Xrotation Zrotation
     End Site
     {
      OFFSET 0.000000 -1.500329 6.694466
     }
    }
   }
  }
 }
 JOINT LeftHip
 {
  OFFSET 7.826875 0.019532 0.001973
  CHANNELS 3 Yrotation Xrotation Zrotation
  JOINT LeftKnee
  {
   OFFSET 0.000000 -40.546152 -0.001885
   CHANNELS 3 Yrotation Xrotation Zrotation
   JOINT LeftAnkle
   {
    OFFSET 0.000000 -39.417092 -0.003189
    CHANNELS 3 Yrotation Xrotation Zrotation
    JOINT LeftToe
    {
     OFFSET 0.000000 -7.579396 17.243563
     CHANNELS 3 Yrotation Xrotation Zrotation
     End Site
     {
      OFFSET 0.000000 -1.500329 6.694466
     }
    }
   }
  }
 }
}
MOTION
Frames: 12
Frame Time: 0.008333
-23.148602 88.002762 -1.334296 -144.008116 -9.269505 -1.345331 6.571135 3.017557 -2.986083 3.728181 1.662843 -1.550667 4.653585 2.093997 -1.921371 3.728181 1.662843 -1.550667 -4.684117 31.117040 8.562740 -7.265546 10.222857 10.838179 7.682929 -10.256418 -7.957638 -8.249090 -48.111927 58.274439 93.413731 -33.367899 16.904008 -29.199366 2.743276 31.806882 -1.374573 -0.181399 2.354146 3.309970 -1.564963 -84.863643 0.702376 -4.029974 0.545972 -2.741141 2.746669 2.700208 -7.519198 13.794087 -10.171637 0.242401 2.099904 -1.742891 1.870189 -6.180610 8.627220 0.073504 -0.502385 0.034120 22.108766 14.357722 12.521269 12.375856 -2.513601 -0.497981 0.840099 -3.559437 -8.984482 0.076852 0.501665 0.032842
-23.160674 88.002028 -1.329711 -144.007165 -9.249146 -1.345276 6.580265 3.009739 -2.993592 3.733391 1.658262 -1.553940 4.660101 2.088326 -1.925483 3.733391 1.658262 -1.553940 -4.683830 31.122707 8.575303 -7.268275 10.232483 10.853102 7.691963 -10.260335 -7.921141 -8.354377 -48.083721 58.445494 93.656601 -33.129520 16.791587 -29.081105 2.690646 31.640301 -1.383937 -0.182980 2.354780 3.305471 -1.564150 -84.838581 0.716320 -4.025405 0.562018 -2.734502 2.764170 2.688392 -7.519650 13.781949 -10.175611 0.243358 2.089170 -1.748753 1.864460 -6.174104 8.639630 0.073864 -0.503945 0.034157 22.114055 14.347626 12.508363 12.366064 -2.524553 -0.505359 0.845428 -3.561493 -8.975422 0.075746 0.503023 0.035323
-23.173294 88.001056 -1.324686 -144.009445 -9.228282 -1.343693 6.590667 3.001195 -3.001216 3.739099 1.653472 -1.557581 4.667236 2.082400 -1.930056 3.739099 1.653472 -1.557581 -4.684707 31.129198 8.587278 -7.272218 10.243297 10.867647 7.697123 -10.264773 -7.884675 -8.441702 -48.051135 58.597264 93.861134 -32.957495 16.699705 -28.980763 2.642682 31.492665 -1.390565 -0.182477 2.359061 3.297589 -1.563488 -84.820980 0.730008 -4.017378 0.581328 -2.729556 2.777360 2.674364 -7.516521 13.767228 -10.180996 0.241982 2.081775 -1.753976 1.860742 -6.170221 8.651226 0.074651 -0.504437 0.034788 22.122301 14.338305 12.495150 12.358707 -2.535964 -0.515155 0.848058 -3.563244 -8.967117 0.074522 0.503958 0.038838
-23.186864 87.999912 -1.319417 -144.011365 -9.209119 -1.340144 6.601235 2.993949 -3.008407 3.744818 1.649282 -1.561434 4.674383 2.077225 -1.934887 3.744818 1.649282 -1.561434 -4.687908 31.135591 8.599110 -7.278814 10.254235 10.882609 7.700511 -10.270481 -7.849519 -8.526924 -48.018187 58.739098 94.021492 -32.862277 16.644189 -28.906879 2.601520 31.373302 -1.394793 -0.183428 2.364346 3.286437 -1.561348 -84.809398 0.742847 -4.003749 0.603266 -2.725022 2.784217 2.658338 -7.516045 13.752333 -10.189925 0.237415 2.077465 -1.758018 1.860716 -6.168991 8.661787 0.075700 -0.504133 0.035865 22.127559 14.332910 12.479917 12.355115 -2.548590 -0.525201 0.846906 -3.564024 -8.958712 0.074019 0.504083 0.041734
-23.201058 87.998640 -1.314162 -144.015959 -9.191718 -1.336477 6.612608 2.987885 -3.014674 3.751125 1.645470 -1.564763 4.682266 2.072521 -1.939057 3.751125 1.645470 -1.564763 -4.692903 31.141257 8.610904 -7.287477 10.264388 10.897960 7.699250 -10.274290 -7.814737 -8.612136 -47.986398 58.873639 94.140089 -32.838513 16.622977 -28.856590 2.564576 31.293869 -1.403179 -0.185916 2.367624 3.280411 -1.559638 -84.799468 0.756394 -3.991989 0.623326 -2.718102 2.793986 2.643837 -7.511531 13.738794 -10.198985 0.236454 2.074402 -1.761844 1.857228 -6.168510 8.673102 0.076505 -0.503883 0.036445 22.132526 14.331938 12.463867 12.350529 -2.564875 -0.533662 0.848372 -3.563017 -8.950450 0.074082 0.503959 0.043553
-23.215551 87.997293 -1.309105 -144.023089 -9.175830 -1.334369 6.623300 2.981928 -3.020015 3.757225 1.641731 -1.567304 4.689894 2.067899 -1.942242 3.757225 1.641731 -1.567304 -4.698288 31.145833 8.622291 -7.296484 10.273030 10.912898 7.698146 -10.272507 -7.778705 -8.693064 -47.956254 58.992599 94.224203 -32.876694 16.627315 -28.818091 2.534091 31.256255 -1.414931 -0.188740 2.368454 3.283985 -1.560342 -84.789454 0.771000 -3.984618 0.638989 -2.707485 2.810183 2.633578 -7.503202 13.728003 -10.207201 0.239202 2.069437 -1.763927 1.851196 -6.166654 8.684171 0.077283 -0.504155 0.036677 22.138016 14.334193 12.448395 12.343693 -2.584734 -0.539818 0.853679 -3.560786 -8.942585 0.074098 0.504339 0.044346
-23.230614 87.995978 -1.304380 -144.029869 -9.163254 -1.332576 6.633328 2.976656 -3.024621 3.762985 1.638490 -1.569423 4.697097 2.063894 -1.944897 3.762985 1.638490 -1.569423 -4.705874 31.149089 8.632663 -7.307789 10.279974 10.927157 7.699197 -10.269031 -7.742414 -8.773436 -47.925155 59.089827 94.283199 -32.956542 16.655491 -28.774957 2.510440 31.246096 -1.428764 -0.192513 2.367673 3.291106 -1.562431 -84.781636 0.787897 -3.980009 0.654587 -2.697327 2.824544 2.625225 -7.498735 13.721556 -10.218132 0.240391 2.061818 -1.763102 1.850336 -6.163475 8.693783 0.077993 -0.504720 0.036969 22.139128 14.339897 12.432604 12.339181 -2.603112 -0.544206 0.859827 -3.559672 -8.934422 0.074012 0.505012 0.044082
-23.246332 87.994786 -1.300120 -144.035309 -9.155334 -1.330280 6.644223 2.972862 -3.028703 3.769096 1.636200 -1.571501 4.704736 2.061078 -1.947490 3.769096 1.636200 -1.571501 -4.716631 31.150686 8.642346 -7.322592 10.284916 10.941355 7.696888 -10.270698 -7.707653 -8.858873 -47.890410 59.170296 94.325825 -33.052207 16.705555 -28.716118 2.489401 31.244392 -1.446355 -0.197036 2.366648 3.296576 -1.563982 -84.778101 0.806053 -3.980255 0.674347 -2.689641 2.836108 2.617484 -7.499886 13.720147 -10.232684 0.240511 2.052867 -1.759912 1.853549 -6.159676 8.702660 0.078404 -0.505533 0.036917 22.134241 14.350219 12.416878 12.339034 -2.618505 -0.548502 0.865650 -3.560186 -8.926036 0.073847 0.505489 0.043660
-23.262222 87.993731 -1.296218 -144.036674 -9.150303 -1.328812 6.652972 2.970333 -3.032502 3.773851 1.634830 -1.573647 4.710674 2.059408 -1.950164 3.773851 1.634830 -1.573647 -4.726200 31.150454 8.651560 -7.335894 10.287133 10.954650 7.693594 -10.276792 -7.676189 -8.947996 -47.855347 59.243582 94.366222 -33.142644 16.766178 -28.643147 2.467152 31.237082 -1.462107 -0.201131 2.366055 3.301838 -1.565686 -84.776443 0.823700 -3.980075 0.694543 -2.682468 2.839730 2.614076 -7.504561 13.722797 -10.247011 0.239595 2.043100 -1.756855 1.855707 -6.155060 8.711901 0.078769 -0.507007 0.036581 22.121742 14.364106 12.402030 12.341858 -2.633923 -0.553658 0.871588 -3.560914 -8.917890 0.073960 0.505954 0.043864
-23.278122 87.992824 -1.292516 -144.034151 -9.147282 -1.327405 6.658803 2.968240 -3.035978 3.776922 1.633961 -1.575647 4.714507 2.058355 -1.952658 3.776922 1.633961 -1.575647 -4.733904 31.149938 8.659283 -7.346676 10.288514 10.965706 7.691774 -10.277661 -7.650014 -9.041284 -47.824695 59.315289 94.424454 -33.208239 16.817978 -28.568919 2.444942 31.218392 -1.476252 -0.202573 2.365204 3.308957 -1.567087 -84.773191 0.839353 -3.975813 0.709390 -2.674990 2.833698 2.613873 -7.509569 13.727789 -10.260159 0.234380 2.034823 -1.755791 1.857835 -6.151052 8.721386 0.079267 -0.509101 0.036835 22.104052 14.379607 12.387656 12.345580 -2.648045 -0.559477 0.876577 -3.562011 -8.908884 0.074492 0.505946 0.043683
-23.294112 87.992089 -1.288962 -144.030662 -9.146625 -1.324255 6.663385 2.966624 -3.039974 3.779196 1.633402 -1.577643 4.717343 2.057686 -1.955148 3.779196 1.633402 -1.577643 -4.741058 31.149948 8.665801 -7.356536 10.290373 10.975216 7.691045 -10.271182 -7.628028 -9.140845 -47.797006 59.383522 94.516150 -33.231357 16.839143 -28.504319 2.428947 31.192247 -1.491746 -0.202777 2.365492 3.313790 -1.565165 -84.770106 0.849144 -3.977110 0.719244 -2.666235 2.827007 2.613110 -7.511438 13.734590 -10.273808 0.226511 2.029242 -1.756402 1.859269 -6.148744 8.730349 0.079512 -0.511482 0.038186 22.086688 14.396572 12.372671 12.348211 -2.660205 -0.565263 0.881231 -3.562868 -8.898404 0.074995 0.504934 0.042590
-23.309929 87.991491 -1.285546 -144.026252 -9.147289 -1.320032 6.666790 2.966344 -3.044867 3.780726 1.633372 -1.579863 4.719246 2.057678 -1.957916 3.780726 1.633372 -1.579863 -4.747493 31.149013 8.673100 -7.365745 10.290965 10.985442 7.689585 -10.265680 -7.608380 -9.239170 -47.762708 59.445348 94.659128 -33.197051 16.803005 -28.461891 2.432704 31.161720 -1.507448 -0.205613 2.368873 3.314045 -1.560018 -84.770851 0.854231 -3.985731 0.726562 -2.657713 2.822609 2.611617 -7.511149 13.742767 -10.287431 0.219379 2.024718 -1.758676 1.858482 -6.147111 8.739195 0.079595 -0.514213 0.040097 22.069853 14.413874 12.356837 12.348672 -2.671162 -0.570311 0.887921 -3.563036 -8.887010 0.075484 0.503550 0.041024
